<svg xmlns="http://www.w3.org/2000/svg" viewBox="0 0 128 128">
  <defs>
    <linearGradient id="grad1" x1="0%" y1="0%" x2="100%" y2="100%">
      <stop offset="0%" style="stop-color:#6366f1;stop-opacity:1" />
      <stop offset="50%" style="stop-color:#a855f7;stop-opacity:1" />
      <stop offset="100%" style="stop-color:#ec4899;stop-opacity:1" />
    </linearGradient>
  </defs>

  <!-- 外圈 -->
  <circle cx="64" cy="64" r="58" fill="none" stroke="url(#grad1)" stroke-width="4"/>

  <!-- 大脑图标 -->
  <g transform="translate(32, 28)">
    <!-- 左半球 -->
    <path d="M32 0 C14 0 2 14 2 32 C2 44 8 54 18 60 L18 72 L32 72 L32 60"
          fill="url(#grad1)" opacity="0.9"/>
    <!-- 右半球 -->
    <path d="M32 0 C50 0 62 14 62 32 C62 44 56 54 46 60 L46 72 L32 72 L32 60"
          fill="url(#grad1)" opacity="0.7"/>
    <!-- 神经连接线 -->
    <circle cx="20" cy="24" r="4" fill="white" opacity="0.8"/>
    <circle cx="32" cy="16" r="3" fill="white" opacity="0.8"/>
    <circle cx="44" cy="24" r="4" fill="white" opacity="0.8"/>
    <circle cx="24" cy="40" r="3" fill="white" opacity="0.8"/>
    <circle cx="40" cy="40" r="3" fill="white" opacity="0.8"/>
    <circle cx="32" cy="52" r="4" fill="white" opacity="0.8"/>

    <line x1="20" y1="24" x2="32" y2="16" stroke="white" stroke-width="1.5" opacity="0.6"/>
    <line x1="32" y1="16" x2="44" y2="24" stroke="white" stroke-width="1.5" opacity="0.6"/>
    <line x1="20" y1="24" x2="24" y2="40" stroke="white" stroke-width="1.5" opacity="0.6"/>
    <line x1="44" y1="24" x2="40" y2="40" stroke="white" stroke-width="1.5" opacity="0.6"/>
    <line x1="24" y1="40" x2="32" y2="52" stroke="white" stroke-width="1.5" opacity="0.6"/>
    <line x1="40" y1="40" x2="32" y2="52" stroke="white" stroke-width="1.5" opacity="0.6"/>
  </g>

  <!-- AI 文字 -->
  <text x="64" y="118" font-family="Arial, sans-serif" font-size="16" font-weight="bold"
        fill="url(#grad1)" text-anchor="middle">AI</text>
</svg>
